# MagicaVoxel @ Ephtracy

# group
o 

# material
mtllib Axe.mtl
usemtl palette

# normals
vn -1 0 0
vn 1 0 0
vn 0 0 1
vn 0 0 -1
vn 0 -1 0
vn 0 1 0

# texcoords
vt 0.115234 0.5
vt 0.537109 0.5
vt 0.958984 0.5
vt 0.986328 0.5

# verts
v -0.5 0 0.5
v -0.5 0 0.4
v -0.5 0.9 0.5
v -0.5 0.9 0.4
v -0.5 1 0.5
v -0.5 1 0.4
v -0.4 0 0.6
v -0.4 0 0.5
v -0.4 0 0.4
v -0.4 0 0.3
v -0.4 0.9 0.6
v -0.4 0.9 0.5
v -0.4 0.9 0.4
v -0.4 0.9 0.3
v -0.4 1 0.6
v -0.4 1 0.5
v -0.4 1 0.4
v -0.4 1 0.3
v -0.4 1.1 0.6
v -0.4 1.1 0.3
v -0.3 1.1 0.7
v -0.3 1.1 0.6
v -0.3 1.1 0.3
v -0.3 1.1 0.2
v -0.3 1.2 0.7
v -0.3 1.2 0.6
v -0.3 1.2 0.3
v -0.3 1.2 0.2
v -0.2 1.1 0.8
v -0.2 1.1 0.7
v -0.2 1.1 0.2
v -0.2 1.1 0.1
v -0.2 1.2 0.8
v -0.2 1.2 0.7
v -0.2 1.2 0.6
v -0.2 1.2 0.3
v -0.2 1.2 0.2
v -0.2 1.2 0.1
v -0.2 1.3 0.7
v -0.2 1.3 0.6
v -0.2 1.3 0.3
v -0.2 1.3 0.2
v -0.1 1.2 0.6
v -0.1 1.2 0.5
v -0.1 1.2 0.4
v -0.1 1.2 0.3
v -0.1 1.3 0.6
v -0.1 1.3 0.5
v -0.1 1.3 0.4
v -0.1 1.3 0.3
v 0 1.2 0.5
v 0 1.2 0.4
v 0 1.3 0.5
v 0 1.3 0.4
v -0.3 0 0.6
v -0.3 0 0.5
v -0.3 0 0.4
v -0.3 0 0.3
v -0.3 0.9 0.6
v -0.3 0.9 0.5
v -0.3 0.9 0.4
v -0.3 0.9 0.3
v -0.3 1 0.6
v -0.3 1 0.5
v -0.3 1 0.4
v -0.3 1 0.3
v -0.2 0 0.5
v -0.2 0 0.4
v -0.2 0.9 0.5
v -0.2 0.9 0.4
v -0.2 1 0.5
v -0.2 1 0.4
v -0.1 1 0.6
v -0.1 1 0.3
v -0.1 1.1 0.8
v -0.1 1.1 0.7
v -0.1 1.1 0.6
v -0.1 1.1 0.3
v -0.1 1.1 0.2
v -0.1 1.1 0.1
v -0.1 1.2 0.8
v -0.1 1.2 0.7
v -0.1 1.2 0.6
v -0.1 1.2 0.3
v -0.1 1.2 0.2
v -0.1 1.2 0.1
v -0.1 1.3 0.7
v -0.1 1.3 0.6
v -0.1 1.3 0.3
v -0.1 1.3 0.2
v 0 1.1 0.7
v 0 1.1 0.6
v 0 1.1 0.3
v 0 1.1 0.2
v 0 1.2 0.7
v 0 1.2 0.6
v 0 1.2 0.5
v 0 1.2 0.4
v 0 1.2 0.3
v 0 1.2 0.2
v 0 1.3 0.6
v 0 1.3 0.5
v 0 1.3 0.4
v 0 1.3 0.3
v 0.1 1.1 0.6
v 0.1 1.1 0.5
v 0.1 1.1 0.4
v 0.1 1.1 0.3
v 0.1 1.2 0.6
v 0.1 1.2 0.5
v 0.1 1.2 0.4
v 0.1 1.2 0.3
v 0.1 1.3 0.5
v 0.1 1.3 0.4
v 0.2 1.1 0.5
v 0.2 1.1 0.4
v 0.2 1.2 0.5
v 0.2 1.2 0.4
v -0.2 1.1 0.8
v -0.2 1.2 0.8
v -0.1 1.1 0.8
v -0.1 1.2 0.8
v -0.3 1.1 0.7
v -0.3 1.2 0.7
v -0.2 1.1 0.7
v -0.2 1.2 0.7
v -0.2 1.3 0.7
v -0.1 1.1 0.7
v -0.1 1.2 0.7
v -0.1 1.3 0.7
v 0 1.1 0.7
v 0 1.2 0.7
v -0.4 0 0.6
v -0.4 0.9 0.6
v -0.4 1 0.6
v -0.4 1.1 0.6
v -0.3 0 0.6
v -0.3 0.9 0.6
v -0.3 1 0.6
v -0.3 1.1 0.6
v -0.2 1.1 0.6
v -0.1 1 0.6
v -0.1 1.1 0.6
v -0.1 1.2 0.6
v -0.1 1.3 0.6
v 0 1.1 0.6
v 0 1.2 0.6
v 0 1.3 0.6
v 0.1 1.1 0.6
v 0.1 1.2 0.6
v -0.5 0 0.5
v -0.5 0.9 0.5
v -0.5 1 0.5
v -0.4 0 0.5
v -0.4 0.9 0.5
v -0.4 1 0.5
v -0.3 0 0.5
v -0.3 0.9 0.5
v -0.3 1 0.5
v -0.2 0 0.5
v -0.2 0.9 0.5
v -0.2 1 0.5
v 0 1.2 0.5
v 0 1.3 0.5
v 0.1 1.1 0.5
v 0.1 1.2 0.5
v 0.1 1.3 0.5
v 0.2 1.1 0.5
v 0.2 1.2 0.5
v -0.1 1.2 0.4
v -0.1 1.3 0.4
v 0 1.2 0.4
v 0 1.3 0.4
v -0.2 1.2 0.3
v -0.2 1.3 0.3
v -0.1 1.2 0.3
v -0.1 1.3 0.3
v -0.2 1.2 0.6
v -0.2 1.3 0.6
v -0.1 1.2 0.6
v -0.1 1.3 0.6
v -0.1 1.2 0.5
v -0.1 1.3 0.5
v 0 1.2 0.5
v 0 1.3 0.5
v -0.5 0 0.4
v -0.5 0.9 0.4
v -0.5 1 0.4
v -0.4 0 0.4
v -0.4 0.9 0.4
v -0.4 1 0.4
v -0.3 0 0.4
v -0.3 0.9 0.4
v -0.3 1 0.4
v -0.2 0 0.4
v -0.2 0.9 0.4
v -0.2 1 0.4
v 0 1.2 0.4
v 0 1.3 0.4
v 0.1 1.1 0.4
v 0.1 1.2 0.4
v 0.1 1.3 0.4
v 0.2 1.1 0.4
v 0.2 1.2 0.4
v -0.4 0 0.3
v -0.4 0.9 0.3
v -0.4 1 0.3
v -0.4 1.1 0.3
v -0.3 0 0.3
v -0.3 0.9 0.3
v -0.3 1 0.3
v -0.3 1.1 0.3
v -0.2 1.1 0.3
v -0.1 1 0.3
v -0.1 1.1 0.3
v -0.1 1.2 0.3
v -0.1 1.3 0.3
v 0 1.1 0.3
v 0 1.2 0.3
v 0 1.3 0.3
v 0.1 1.1 0.3
v 0.1 1.2 0.3
v -0.3 1.1 0.2
v -0.3 1.2 0.2
v -0.2 1.1 0.2
v -0.2 1.2 0.2
v -0.2 1.3 0.2
v -0.1 1.1 0.2
v -0.1 1.2 0.2
v -0.1 1.3 0.2
v 0 1.1 0.2
v 0 1.2 0.2
v -0.2 1.1 0.1
v -0.2 1.2 0.1
v -0.1 1.1 0.1
v -0.1 1.2 0.1
v -0.4 0 0.6
v -0.3 0 0.6
v -0.5 0 0.5
v -0.4 0 0.5
v -0.3 0 0.5
v -0.2 0 0.5
v -0.5 0 0.4
v -0.4 0 0.4
v -0.3 0 0.4
v -0.2 0 0.4
v -0.4 0 0.3
v -0.3 0 0.3
v -0.3 1 0.6
v -0.1 1 0.6
v -0.3 1 0.5
v -0.2 1 0.5
v -0.3 1 0.4
v -0.2 1 0.4
v -0.3 1 0.3
v -0.1 1 0.3
v -0.2 1.1 0.8
v -0.1 1.1 0.8
v -0.3 1.1 0.7
v -0.2 1.1 0.7
v -0.1 1.1 0.7
v 0 1.1 0.7
v -0.3 1.1 0.6
v -0.2 1.1 0.6
v -0.1 1.1 0.6
v 0 1.1 0.6
v 0.1 1.1 0.6
v 0 1.1 0.5
v 0.1 1.1 0.5
v 0.2 1.1 0.5
v 0 1.1 0.4
v 0.1 1.1 0.4
v 0.2 1.1 0.4
v -0.3 1.1 0.3
v -0.2 1.1 0.3
v -0.1 1.1 0.3
v 0 1.1 0.3
v 0.1 1.1 0.3
v -0.3 1.1 0.2
v -0.2 1.1 0.2
v -0.1 1.1 0.2
v 0 1.1 0.2
v -0.2 1.1 0.1
v -0.1 1.1 0.1
v -0.5 1 0.5
v -0.4 1 0.5
v -0.5 1 0.4
v -0.4 1 0.4
v -0.4 1.1 0.6
v -0.3 1.1 0.6
v -0.4 1.1 0.3
v -0.3 1.1 0.3
v -0.2 1.2 0.8
v -0.1 1.2 0.8
v -0.3 1.2 0.7
v -0.2 1.2 0.7
v -0.1 1.2 0.7
v 0 1.2 0.7
v -0.3 1.2 0.6
v -0.2 1.2 0.6
v -0.1 1.2 0.6
v 0 1.2 0.6
v 0.1 1.2 0.6
v -0.1 1.2 0.5
v 0 1.2 0.5
v 0.1 1.2 0.5
v 0.2 1.2 0.5
v -0.1 1.2 0.4
v 0 1.2 0.4
v 0.1 1.2 0.4
v 0.2 1.2 0.4
v -0.3 1.2 0.3
v -0.2 1.2 0.3
v -0.1 1.2 0.3
v 0 1.2 0.3
v 0.1 1.2 0.3
v -0.3 1.2 0.2
v -0.2 1.2 0.2
v -0.1 1.2 0.2
v 0 1.2 0.2
v -0.2 1.2 0.1
v -0.1 1.2 0.1
v -0.2 1.3 0.7
v -0.1 1.3 0.7
v -0.2 1.3 0.6
v -0.1 1.3 0.6
v 0 1.3 0.6
v -0.1 1.3 0.5
v 0 1.3 0.5
v 0.1 1.3 0.5
v -0.1 1.3 0.4
v 0 1.3 0.4
v 0.1 1.3 0.4
v -0.2 1.3 0.3
v -0.1 1.3 0.3
v 0 1.3 0.3
v -0.2 1.3 0.2
v -0.1 1.3 0.2

# faces
f 3/2/1 2/2/1 1/2/1
f 4/2/1 2/2/1 3/2/1
f 5/1/1 4/1/1 3/1/1
f 6/1/1 4/1/1 5/1/1
f 11/2/1 8/2/1 7/2/1
f 12/2/1 8/2/1 11/2/1
f 13/2/1 10/2/1 9/2/1
f 14/2/1 10/2/1 13/2/1
f 15/1/1 12/1/1 11/1/1
f 16/1/1 12/1/1 15/1/1
f 17/1/1 14/1/1 13/1/1
f 18/1/1 14/1/1 17/1/1
f 19/4/1 16/4/1 15/4/1
f 19/4/1 17/4/1 16/4/1
f 19/4/1 18/4/1 17/4/1
f 20/4/1 18/4/1 19/4/1
f 25/3/1 22/3/1 21/3/1
f 26/4/1 23/4/1 22/4/1
f 26/3/1 22/3/1 25/3/1
f 27/3/1 24/3/1 23/3/1
f 27/4/1 23/4/1 26/4/1
f 28/3/1 24/3/1 27/3/1
f 33/3/1 30/3/1 29/3/1
f 34/3/1 30/3/1 33/3/1
f 37/3/1 32/3/1 31/3/1
f 38/3/1 32/3/1 37/3/1
f 39/3/1 35/3/1 34/3/1
f 40/3/1 35/3/1 39/3/1
f 41/3/1 37/3/1 36/3/1
f 42/3/1 37/3/1 41/3/1
f 47/3/1 44/3/1 43/3/1
f 48/3/1 44/3/1 47/3/1
f 49/3/1 46/3/1 45/3/1
f 50/3/1 46/3/1 49/3/1
f 53/3/1 52/3/1 51/3/1
f 54/3/1 52/3/1 53/3/1
f 55/2/2 56/2/2 59/2/2
f 59/2/2 56/2/2 60/2/2
f 57/2/2 58/2/2 61/2/2
f 61/2/2 58/2/2 62/2/2
f 59/1/2 60/1/2 63/1/2
f 63/1/2 60/1/2 64/1/2
f 61/1/2 62/1/2 65/1/2
f 65/1/2 62/1/2 66/1/2
f 67/2/2 68/2/2 69/2/2
f 69/2/2 68/2/2 70/2/2
f 69/1/2 70/1/2 71/1/2
f 71/1/2 70/1/2 72/1/2
f 73/4/2 74/4/2 77/4/2
f 77/4/2 74/4/2 78/4/2
f 75/3/2 76/3/2 81/3/2
f 81/3/2 76/3/2 82/3/2
f 79/3/2 80/3/2 85/3/2
f 85/3/2 80/3/2 86/3/2
f 82/3/2 83/3/2 87/3/2
f 87/3/2 83/3/2 88/3/2
f 84/3/2 85/3/2 89/3/2
f 89/3/2 85/3/2 90/3/2
f 91/3/2 92/3/2 95/3/2
f 95/3/2 92/3/2 96/3/2
f 93/3/2 94/3/2 99/3/2
f 99/3/2 94/3/2 100/3/2
f 96/3/2 97/3/2 101/3/2
f 101/3/2 97/3/2 102/3/2
f 98/3/2 99/3/2 103/3/2
f 103/3/2 99/3/2 104/3/2
f 105/3/2 106/3/2 109/3/2
f 109/3/2 106/3/2 110/3/2
f 107/3/2 108/3/2 111/3/2
f 111/3/2 108/3/2 112/3/2
f 110/3/2 111/3/2 113/3/2
f 113/3/2 111/3/2 114/3/2
f 115/3/2 116/3/2 117/3/2
f 117/3/2 116/3/2 118/3/2
f 121/3/3 120/3/3 119/3/3
f 122/3/3 120/3/3 121/3/3
f 125/3/3 124/3/3 123/3/3
f 126/3/3 124/3/3 125/3/3
f 129/3/3 127/3/3 126/3/3
f 130/3/3 127/3/3 129/3/3
f 131/3/3 129/3/3 128/3/3
f 132/3/3 129/3/3 131/3/3
f 137/2/3 134/2/3 133/2/3
f 138/1/3 135/1/3 134/1/3
f 138/2/3 134/2/3 137/2/3
f 139/4/3 136/4/3 135/4/3
f 139/1/3 135/1/3 138/1/3
f 140/4/3 136/4/3 139/4/3
f 141/4/3 140/4/3 139/4/3
f 142/4/3 141/4/3 139/4/3
f 143/4/3 141/4/3 142/4/3
f 147/3/3 145/3/3 144/3/3
f 148/3/3 145/3/3 147/3/3
f 149/3/3 147/3/3 146/3/3
f 150/3/3 147/3/3 149/3/3
f 154/2/3 152/2/3 151/2/3
f 155/1/3 153/1/3 152/1/3
f 155/2/3 152/2/3 154/2/3
f 156/1/3 153/1/3 155/1/3
f 160/2/3 158/2/3 157/2/3
f 161/1/3 159/1/3 158/1/3
f 161/2/3 158/2/3 160/2/3
f 162/1/3 159/1/3 161/1/3
f 166/3/3 164/3/3 163/3/3
f 167/3/3 164/3/3 166/3/3
f 168/3/3 166/3/3 165/3/3
f 169/3/3 166/3/3 168/3/3
f 172/3/3 171/3/3 170/3/3
f 173/3/3 171/3/3 172/3/3
f 176/3/3 175/3/3 174/3/3
f 177/3/3 175/3/3 176/3/3
f 178/3/4 179/3/4 180/3/4
f 180/3/4 179/3/4 181/3/4
f 182/3/4 183/3/4 184/3/4
f 184/3/4 183/3/4 185/3/4
f 186/2/4 187/2/4 189/2/4
f 187/1/4 188/1/4 190/1/4
f 189/2/4 187/2/4 190/2/4
f 190/1/4 188/1/4 191/1/4
f 192/2/4 193/2/4 195/2/4
f 193/1/4 194/1/4 196/1/4
f 195/2/4 193/2/4 196/2/4
f 196/1/4 194/1/4 197/1/4
f 198/3/4 199/3/4 201/3/4
f 201/3/4 199/3/4 202/3/4
f 200/3/4 201/3/4 203/3/4
f 203/3/4 201/3/4 204/3/4
f 205/2/4 206/2/4 209/2/4
f 206/1/4 207/1/4 210/1/4
f 209/2/4 206/2/4 210/2/4
f 207/4/4 208/4/4 211/4/4
f 210/1/4 207/1/4 211/1/4
f 211/4/4 208/4/4 212/4/4
f 211/4/4 212/4/4 213/4/4
f 211/4/4 213/4/4 214/4/4
f 214/4/4 213/4/4 215/4/4
f 216/3/4 217/3/4 219/3/4
f 219/3/4 217/3/4 220/3/4
f 218/3/4 219/3/4 221/3/4
f 221/3/4 219/3/4 222/3/4
f 223/3/4 224/3/4 225/3/4
f 225/3/4 224/3/4 226/3/4
f 226/3/4 227/3/4 229/3/4
f 229/3/4 227/3/4 230/3/4
f 228/3/4 229/3/4 231/3/4
f 231/3/4 229/3/4 232/3/4
f 233/3/4 234/3/4 235/3/4
f 235/3/4 234/3/4 236/3/4
f 240/2/5 238/2/5 237/2/5
f 241/2/5 238/2/5 240/2/5
f 243/2/5 240/2/5 239/2/5
f 243/2/5 242/2/5 241/2/5
f 243/2/5 241/2/5 240/2/5
f 244/2/5 242/2/5 243/2/5
f 245/2/5 242/2/5 244/2/5
f 246/2/5 242/2/5 245/2/5
f 247/2/5 245/2/5 244/2/5
f 248/2/5 245/2/5 247/2/5
f 251/4/5 250/4/5 249/4/5
f 252/4/5 250/4/5 251/4/5
f 254/4/5 250/4/5 252/4/5
f 255/4/5 254/4/5 253/4/5
f 256/4/5 250/4/5 254/4/5
f 256/4/5 254/4/5 255/4/5
f 260/3/5 258/3/5 257/3/5
f 261/3/5 258/3/5 260/3/5
f 263/3/5 260/3/5 259/3/5
f 264/4/5 261/4/5 260/4/5
f 264/3/5 260/3/5 263/3/5
f 265/3/5 262/3/5 261/3/5
f 265/4/5 261/4/5 264/4/5
f 266/3/5 262/3/5 265/3/5
f 268/3/5 267/3/5 266/3/5
f 268/4/5 266/4/5 265/4/5
f 269/3/5 267/3/5 268/3/5
f 271/4/5 268/4/5 265/4/5
f 271/4/5 269/4/5 268/4/5
f 272/3/5 270/3/5 269/3/5
f 272/4/5 269/4/5 271/4/5
f 273/3/5 270/3/5 272/3/5
f 276/4/5 271/4/5 265/4/5
f 277/3/5 272/3/5 271/3/5
f 277/4/5 271/4/5 276/4/5
f 278/3/5 272/3/5 277/3/5
f 279/3/5 275/3/5 274/3/5
f 280/4/5 276/4/5 275/4/5
f 280/3/5 275/3/5 279/3/5
f 281/3/5 277/3/5 276/3/5
f 281/4/5 276/4/5 280/4/5
f 282/3/5 277/3/5 281/3/5
f 283/3/5 281/3/5 280/3/5
f 284/3/5 281/3/5 283/3/5
f 285/1/6 286/1/6 287/1/6
f 287/1/6 286/1/6 288/1/6
f 289/4/6 290/4/6 291/4/6
f 291/4/6 290/4/6 292/4/6
f 293/3/6 294/3/6 296/3/6
f 296/3/6 294/3/6 297/3/6
f 295/3/6 296/3/6 299/3/6
f 299/3/6 296/3/6 300/3/6
f 297/3/6 298/3/6 301/3/6
f 301/3/6 298/3/6 302/3/6
f 299/4/6 300/4/6 304/4/6
f 300/4/6 301/4/6 304/4/6
f 302/3/6 303/3/6 305/3/6
f 305/3/6 303/3/6 306/3/6
f 299/4/6 304/4/6 308/4/6
f 304/4/6 305/4/6 308/4/6
f 308/4/6 305/4/6 309/4/6
f 306/3/6 307/3/6 310/3/6
f 310/3/6 307/3/6 311/3/6
f 299/4/6 308/4/6 312/4/6
f 312/4/6 308/4/6 313/4/6
f 313/4/6 308/4/6 314/4/6
f 309/3/6 310/3/6 315/3/6
f 315/3/6 310/3/6 316/3/6
f 312/3/6 313/3/6 317/3/6
f 317/3/6 313/3/6 318/3/6
f 314/3/6 315/3/6 319/3/6
f 319/3/6 315/3/6 320/3/6
f 318/3/6 319/3/6 321/3/6
f 321/3/6 319/3/6 322/3/6
f 323/3/6 324/3/6 325/3/6
f 325/3/6 324/3/6 326/3/6
f 326/3/6 327/3/6 328/3/6
f 328/3/6 327/3/6 329/3/6
f 329/3/6 330/3/6 332/3/6
f 332/3/6 330/3/6 333/3/6
f 331/3/6 332/3/6 335/3/6
f 335/3/6 332/3/6 336/3/6
f 334/3/6 335/3/6 337/3/6
f 337/3/6 335/3/6 338/3/6
